# AST/ASF file generated using VICON BodyLanguage
# -----------------------------------------------
:version 1.10
:name VICON
:units
  mass 1.0
  length 0.45
  angle deg
:documentation
   .ast/.asf automatically generated from VICON data using
   VICON BodyBuilder and BodyLanguage model FoxedUp or BRILLIANT.MOD
:root
   order TX TY TZ RX RY RZ
   axis XYZ
   position 0 0 0  
   orientation 0 0 0 
:bonedata
  begin
     id 1 
     name lhipjoint
     direction 0.603808 -0.713975 0.35448 
     length 2.2025 
     axis 0 0 0  XYZ
  end
  begin
     id 2 
     name lfemur
     direction 0.34202 -0.939693 0  
     length 6.55877  
     axis 0 0 20  XYZ
    dof rx ry rz
    limits (-160.0 20.0)
           (-70.0 70.0)
           (-60.0 70.0)
  end
  begin
     id 3 
     name ltibia
     direction 0.34202 -0.939693 0   
     length 6.80302   
     axis 0 0 20   XYZ
    dof rx
    limits (-10.0 170.0)
  end
  begin
     id 4 
     name lfoot
     direction 0.091848 -0.25235 0.963267   
     length 2.03446   
     axis -90 7.62852e-016 20   XYZ
    dof rx rz
    limits (-45.0 90.0)
           (-70.0 20.0)
  end
  begin
     id 5 
     name ltoes
     direction 1.53608e-011 -4.21925e-011 1   
     length 1.02033   
     axis -90 7.62852e-016 20   XYZ
    dof rx
    limits (-90.0 20.0)
  end
  begin
     id 6 
     name rhipjoint
     direction -0.587285 -0.724947 0.359928   
     length 2.16916  
     axis 0 0 0  XYZ 
  end
  begin
     id 7 
     name rfemur
     direction -0.34202 -0.939693 0   
     length 6.43173   
     axis 0 0 -20   XYZ
    dof rx ry rz
    limits (-160.0 20.0)
           (-70.0 70.0)
           (-70.0 60.0)
  end
  begin
     id 8 
     name rtibia
     direction -0.34202 -0.939693 0   
     length 6.70662   
     axis 0 0 -20   XYZ
    dof rx
    limits (-10.0 170.0)
 end
 begin
     id 9 
     name rfoot
     direction -0.11854 -0.325686 0.938018   
     length 2.0773  
     axis -90 -7.62852e-016 -20   XYZ
    dof rx rz
    limits (-45.0 90.0)
           (-20.0 70.0)
  end
  begin
     id 10 
     name rtoes
     direction -1.53547e-011 -4.21838e-011 1   
     length 1.03267   
     axis -90 -7.62852e-016 -20   XYZ
    dof rx
    limits (-90.0 20.0)
  end
  begin
     id 11 
     name lowerback
     direction -0.0286554 0.999539 0.0100613   
     length 2.08751   
     axis 0 0 0   XYZ
    dof rx ry rz
    limits (-20.0 45.0)
           (-30.0 30.0)
           (-30.0 30.0)
  end
  begin
     id 12 
     name upperback
     direction 0.0227093 0.999705 -0.00860929   
     length 2.08517   
     axis 0 0 0   XYZ
    dof rx ry rz
    limits (-20.0 45.0)
           (-30.0 30.0)
           (-30.0 30.0)
  end
  begin
     id 13 
     name thorax
     direction 0.0351627 0.999285 -0.013892   
     length 2.08412   
     axis 0 0 0   XYZ
    dof rx ry rz
    limits (-20.0 45.0)
           (-30.0 30.0)
           (-30.0 30.0)
  end
  begin
     id 14 
     name lowerneck
     direction -0.0696283 0.997344 0.0213922   
     length 1.44164   
     axis 0 0 0   XYZ
    dof rx ry rz
    limits (-20.0 45.0)
           (-30.0 30.0)
           (-30.0 30.0)
  end
  begin
     id 15 
     name upperneck
     direction 0.0531 0.990412 -0.127531   
     length 1.45022   
     axis 0 0 0   XYZ
    dof rx ry rz
    limits (-20.0 45.0)
           (-30.0 30.0)
           (-30.0 30.0)
  end
  begin
     id 16
     name head
     direction 0.0188154 0.998548 -0.0504727  
     length 1.45845  
     axis 0 0 0   XYZ
    dof rx ry rz
    limits (-20.0 45.0)
           (-30.0 30.0)
           (-30.0 30.0)
  end
  begin
     id 17 
     name lclavicle
     direction 0.961559 0.260051 0.088188  
     length 2.86057  
     axis 0 0 0   XYZ
    dof ry rz
    limits (-20.0 10.0)
           (0.0 20.0)
  end
  begin
     id 18 
     name lhumerus
     direction 1 -4.48959e-011 2.88185e-027   
     length 4.36901   
     axis 180 -30 -90   XYZ
    dof rx ry rz
    limits (-60.0 90.0)
           (-90.0 90.0)
           (-90.0 90.0)
  end
  begin
     id 19
     name lradius
     direction 1 -4.48965e-011 -3.92618e-028   
     length 3.21737   
     axis 180 -30 -90   XYZ
    dof rx
    limits (-10.0 170.0)
  end
  begin
     id 20
     name lwrist
     direction 1 -4.49037e-011 2.57246e-027   
     length 1.60869   
     axis -1.61769e-015 90 90   XYZ
    dof ry
    limits (-180.0 0.0)
 end
  begin
     id 21 
     name lhand
     direction 1 -4.48807e-011 5.12958e-027   
     length 0.564313   
     axis -3.27988e-015 90 90   XYZ
    dof rx rz
    limits (-90.0 90.0)
           (-45.0 45.0)
  end
  begin
     id 22 
     name lfingers
     direction 1 -4.48879e-011 1.02687e-026   
     length 0.454963   
     axis -6.5598e-015 90 90   XYZ
    dof rx
    limits (0.0 90.0)
  end
  begin
     id 23
     name lthumb
     direction 0.707107 -6.3475e-011 0.707107   
     length 0.653239   
     axis -90 45 2.19363e-014   XYZ
    dof rx rz
    limits (-45.0 45.0)
           (-45.0 45.0)
  end
  begin
     id 24 
     name rclavicle
     direction -0.954677 0.253915 0.155304   
     length 3.11497  
     axis 0 0 0   XYZ 
    dof ry rz
    limits (-10.0 20.0)
           (-20.0 0.0)
  end
  begin
     id 25 
     name rhumerus
     direction -1 -4.48958e-011 -8.20169e-028  
     length 4.34118   
     axis 180 30 90   XYZ
    dof rx ry rz
    limits (-90.0 60.0)
           (-90.0 90.0)
           (-90.0 90.0)
  end
  begin
     id 26 
     name rradius
     direction -1 -4.48978e-011 1.5676e-027   
     length 3.09531   
     axis 180 30 90   XYZ
    dof rx
    limits (-10.0 170.0)
  end
  begin
     id 27 
     name rwrist
     direction -1 -4.49001e-011 2.57123e-027   
     length 1.54765   
     axis -1.61769e-015 -90 -90   XYZ
    dof ry
    limits (-180.0 0.0)
  end
  begin
     id 28
     name rhand
     direction -1 -4.48847e-011 5.13225e-027   
     length 0.597446   
     axis -3.27988e-015 -90 -90   XYZ
    dof rx rz
    limits (-90.0 90.0)
           (-45.0 45.0)
  end
  begin
     id 29
     name rfingers
     direction -1 -4.49094e-011 1.02974e-026   
     length 0.481677   
     axis -6.5598e-015 -90 -90   XYZ
    dof rx
    limits (0.0 90.0)
  end
  begin
     id 30
     name rthumb
     direction -0.707107 -6.34859e-011 0.707107   
     length 0.691594   
     axis -90 -45 -2.19363e-014   XYZ
    dof rx rz
    limits (-45.0 45.0)
           (-45.0 45.0)
  end
:hierarchy
  begin
    root lhipjoint rhipjoint lowerback
    lhipjoint lfemur
    lfemur ltibia
    ltibia lfoot
    lfoot ltoes
    rhipjoint rfemur
    rfemur rtibia
    rtibia rfoot
    rfoot rtoes
    lowerback upperback
    upperback thorax
    thorax lowerneck lclavicle rclavicle
    lowerneck upperneck
    upperneck head
    lclavicle lhumerus
    lhumerus lradius
    lradius lwrist
    lwrist lhand lthumb
    lhand lfingers
    rclavicle rhumerus
    rhumerus rradius
    rradius rwrist
    rwrist rhand rthumb
    rhand rfingers
  end

#!OML:ASF I:\Acrobat_Osman\acrobat\cartwheel_test 2\Patient 1\Session 1\acrobat.ASF
:FULLY-SPECIFIED
:DEGREES
157
root 6.25863 14.5469 9.05511 20.738 -6.43991 1.28061
lowerback 0.102726 -3.89368 -2.77958
upperback 1.81176 -5.32733 7.06919
thorax 2.77195 -2.8393 8.84124
lowerneck -5.37277 6.31839 3.24374
upperneck 1.65217 8.28375 -2.27776
head 1.67045 4.11474 -0.99236
rclavicle 5.00937e-014 4.77083e-015
rhumerus -51.06 3.08738 -79.0637
rradius 56.0209
rwrist -10.16
rhand -25.0974 26.5197
rfingers 7.12502
rthumb 1.41745 -3.4553
lclavicle 5.00937e-014 4.77083e-015
lhumerus 16.6693 -73.6099 73.8165
lradius 110.014
lwrist 28.1616
lhand -15.2867 40.8361
lfingers 7.12502
lthumb 10.8883 70.5338
rfemur -64.4399 11.6861 3.14062
rtibia 35.8977
rfoot -19.2494 1.85381
rtoes -29.7188
lfemur 0.869081 9.06144 -22.5254
ltibia 37.7308
lfoot -6.22927 8.44643
ltoes -33.2335
158
root 6.22191 14.5589 9.32285 21.0738 -6.47367 1.07919
lowerback -0.245081 -3.98579 -2.02207
upperback 1.52084 -5.44104 6.85584
thorax 2.58603 -2.86118 8.14851
lowerneck -5.67075 6.30104 3.15098
upperneck 1.76307 8.25597 -2.18956
head 1.74919 4.09997 -0.939153
rclavicle -7.95139e-014 2.38542e-014
rhumerus -50.9592 3.50771 -78.8587
rradius 56.4792
rwrist -10.2104
rhand -24.388 26.1244
rfingers 7.12502
rthumb 2.10259 -3.84502
lclavicle -7.95139e-014 2.38542e-014
lhumerus 17.6669 -72.9326 72.2793
lradius 108.336
lwrist 29.3488
lhand -15.1447 41.2332
lfingers 7.12502
lthumb 11.0252 70.9236
rfemur -64.7111 12.1296 3.26781
rtibia 36.9522
rfoot -17.092 0.621297
rtoes -28.8742
lfemur 1.14221 8.36539 -21.995
ltibia 38.0771
lfoot -4.25214 6.87577
ltoes -31.9561
159
root 6.18792 14.5342 9.58349 21.0091 -6.74166 0.973872
lowerback -0.276493 -4.00472 -1.53699
upperback 1.31804 -5.45442 6.6151
thorax 2.32125 -2.84198 7.61388
lowerneck -5.64009 6.3266 3.03789
upperneck 1.55502 8.29689 -2.1917
head 1.67168 4.11981 -0.923865
rclavicle -7.51406e-014 4.77083e-015
rhumerus -50.6263 4.13776 -78.5174
rradius 56.3822
rwrist -10.1358
rhand -23.6398 25.8203
rfingers 7.12502
rthumb 2.8252 -4.14068
lclavicle -7.51406e-014 4.77083e-015
lhumerus 17.9314 -71.9523 71.6457
lradius 106.606
lwrist 30.3257
lhand -15.6719 41.4377
lfingers 7.12502
lthumb 10.5166 71.1546
rfemur -64.6452 12.0428 4.02927
rtibia 38.4785
rfoot -14.7423 0.1112
rtoes -28.9479
lfemur 1.52816 8.13933 -21.5293
ltibia 39.1369
lfoot -2.67493 5.26034
ltoes -31.8496
160
root 6.15796 14.4965 9.83231 20.4389 -7.15447 1.03301
lowerback 0.17898 -3.95112 -1.32387
upperback 1.23198 -5.36141 6.29064
thorax 1.908 -2.77505 7.18542
lowerneck -5.36969 6.40862 2.87777
upperneck 1.2825 8.41825 -2.08301
head 1.52535 4.18328 -0.872487
rclavicle -1.1291e-013 -1.03368e-014
rhumerus -49.9561 4.87542 -78.0478
rradius 55.6274
rwrist -9.9923
rhand -22.994 25.3836
rfingers 7.12502
rthumb 3.44891 -4.56822
lclavicle -1.1291e-013 -1.03368e-014
lhumerus 17.7109 -70.7446 71.5754
lradius 104.751
lwrist 30.9085
lhand -15.8866 41.4508
lfingers 7.12502
lthumb 10.3095 71.1781
rfemur -64.1745 11.3858 5.46684
rtibia 40.4077
rfoot -11.5562 0.860581
rtoes -30.0391
lfemur 2.08191 8.3402 -21.1261
ltibia 41.0237
lfoot -1.96422 3.46859
ltoes -31.9981
161
root 6.13156 14.4611 10.0697 19.6065 -7.46247 1.03076
lowerback 1.12787 -3.89684 -1.17233
upperback 1.0574 -5.25468 6.08209
thorax 1.14495 -2.69767 6.95886
lowerneck -5.06365 6.55309 2.6098
upperneck 1.37543 8.63339 -1.9563
head 1.48689 4.29312 -0.79044
rclavicle -1.51076e-014 1.43125e-014
rhumerus -49.0992 5.87366 -77.2912
rradius 54.244
rwrist -9.7582
rhand -22.5478 25.3698
rfingers 7.12502
rthumb 3.87976 -4.57463
lclavicle -1.51076e-014 1.43125e-014
lhumerus 16.1977 -69.4928 72.8671
lradius 102.604
lwrist 30.4658
lhand -16.0755 41.2567
lfingers 7.12502
lthumb 10.1273 70.993
rfemur -63.7504 10.8402 7.02589
rtibia 42.5221
rfoot -8.99364 2.76331
rtoes -28.1055
lfemur 2.6035 8.76569 -20.4662
ltibia 43.656
lfoot -1.73322 1.46763
ltoes -30.2947
